HIERARCHY
ROOT Hips
{
  OFFSET 5.72205e-005 65.662 3.42586
  CHANNELS 6 Xposition Yposition Zposition Zrotation Xrotation Yrotation
  JOINT Chest
  {
    OFFSET 0 8.7983 -4.7612
    CHANNELS 3 Zrotation Xrotation Yrotation
    JOINT Chest2
    {
      OFFSET 0 8.0291 0.4195
      CHANNELS 3 Zrotation Xrotation Yrotation
      JOINT Chest3
      {
        OFFSET 0 9.9351 -2.2114
        CHANNELS 3 Zrotation Xrotation Yrotation
        JOINT Neck
        {
          OFFSET 0 22.3885 -0.4656
          CHANNELS 3 Zrotation Xrotation Yrotation
          JOINT Head
          {
            OFFSET -0.0001 12.643 3.4389
            CHANNELS 3 Zrotation Xrotation Yrotation
            End Site
            {
              OFFSET 0.0001 17.6655 0.5274
            }
          }
        }
        JOINT LeftCollar
        {
          OFFSET 2.2603 21.606 7.4023
          CHANNELS 3 Zrotation Xrotation Yrotation
          JOINT LeftShoulder
          {
            OFFSET 13.5163 -1.1332 -5.0146
            CHANNELS 3 Zrotation Xrotation Yrotation
            JOINT LeftElbow
            {
              OFFSET -0.0995 -28.05 -0.2431
              CHANNELS 3 Zrotation Xrotation Yrotation
              JOINT LeftWrist
              {
                OFFSET 0.0679 -23.3996 -0.1402
                CHANNELS 3 Zrotation Xrotation Yrotation
                JOINT LeftFinger1
                {
                  OFFSET 0.7932 -9.069 2.5189
                  CHANNELS 3 Zrotation Xrotation Yrotation
                  JOINT LeftFinger11
                  {
                    OFFSET -0.8272 -3.3923 0.5977
                    CHANNELS 3 Zrotation Xrotation Yrotation
                    JOINT LeftFinger12
                    {
                      OFFSET -0.5649 -2.3158 0.4082
                      CHANNELS 3 Zrotation Xrotation Yrotation
                      End Site
                      {
                        OFFSET -0.4919 -1.6479 0.2673
                      }
                    }
                  }
                }
                JOINT LeftFinger2
                {
                  OFFSET 0.9159 -9.2044 0.2193
                  CHANNELS 3 Zrotation Xrotation Yrotation
                  JOINT LeftFinger21
                  {
                    OFFSET 0.0117 -4.1944 -0.0248
                    CHANNELS 3 Zrotation Xrotation Yrotation
                    JOINT LeftFinger22
                    {
                      OFFSET 0.0071 -2.3249 -0.0142
                      CHANNELS 3 Zrotation Xrotation Yrotation
                      End Site
                      {
                        OFFSET -0.1475 -2.0882 0.0028
                      }
                    }
                  }
                }
                JOINT LeftFinger3
                {
                  OFFSET 0.6113 -8.7231 -2.0637
                  CHANNELS 3 Zrotation Xrotation Yrotation
                  JOINT LeftFinger31
                  {
                    OFFSET -0.1927 -3.8059 -0.2383
                    CHANNELS 3 Zrotation Xrotation Yrotation
                    JOINT LeftFinger32
                    {
                      OFFSET -0.1091 -2.1688 -0.1362
                      CHANNELS 3 Zrotation Xrotation Yrotation
                      End Site
                      {
                        OFFSET -0.2358 -1.9176 -0.0906
                      }
                    }
                  }
                }
                JOINT LeftFinger4
                {
                  OFFSET -0.6151 -8.0947 -3.5641
                  CHANNELS 3 Zrotation Xrotation Yrotation
                  JOINT LeftFinger41
                  {
                    OFFSET -0.4882 -2.341 -0.6462
                    CHANNELS 3 Zrotation Xrotation Yrotation
                    JOINT LeftFinger42
                    {
                      OFFSET -0.3575 -1.7167 -0.4742
                      CHANNELS 3 Zrotation Xrotation Yrotation
                      End Site
                      {
                        OFFSET -0.4187 -1.5237 -0.3496
                      }
                    }
                  }
                }
                JOINT LeftFinger0
                {
                  OFFSET -1.42 -1.8761 1.4223
                  CHANNELS 3 Zrotation Xrotation Yrotation
                  JOINT LeftFinger01
                  {
                    OFFSET -1.1471 -3.4929 2.6334
                    CHANNELS 3 Zrotation Xrotation Yrotation
                    JOINT LeftFinger02
                    {
                      OFFSET -0.823 -2.3 1.6571
                      CHANNELS 3 Zrotation Xrotation Yrotation
                      End Site
                      {
                        OFFSET -0.5822 -1.6914 1.1582
                      }
                    }
                  }
                }
              }
            }
          }
        }
        JOINT RightCollar
        {
          OFFSET -2.2603 21.606 7.4023
          CHANNELS 3 Zrotation Xrotation Yrotation
          JOINT RightShoulder
          {
            OFFSET -13.5187 -1.1334 -5.0155
            CHANNELS 3 Zrotation Xrotation Yrotation
            JOINT RightElbow
            {
              OFFSET 0.0994 -28.0499 -0.2431
              CHANNELS 3 Zrotation Xrotation Yrotation
              JOINT RightWrist
              {
                OFFSET -0.0679 -23.3996 -0.1402
                CHANNELS 3 Zrotation Xrotation Yrotation
                JOINT RightFinger1
                {
                  OFFSET -0.7932 -9.0691 2.5189
                  CHANNELS 3 Zrotation Xrotation Yrotation
                  JOINT RightFinger11
                  {
                    OFFSET 0.8272 -3.3923 0.5977
                    CHANNELS 3 Zrotation Xrotation Yrotation
                    JOINT RightFinger12
                    {
                      OFFSET 0.565 -2.3158 0.4082
                      CHANNELS 3 Zrotation Xrotation Yrotation
                      End Site
                      {
                        OFFSET 0.4919 -1.6479 0.2673
                      }
                    }
                  }
                }
                JOINT RightFinger2
                {
                  OFFSET -0.916 -9.2044 0.2193
                  CHANNELS 3 Zrotation Xrotation Yrotation
                  JOINT RightFinger21
                  {
                    OFFSET -0.0117 -4.1944 -0.0248
                    CHANNELS 3 Zrotation Xrotation Yrotation
                    JOINT RightFinger22
                    {
                      OFFSET -0.0071 -2.3249 -0.0142
                      CHANNELS 3 Zrotation Xrotation Yrotation
                      End Site
                      {
                        OFFSET 0.1475 -2.0882 0.0028
                      }
                    }
                  }
                }
                JOINT RightFinger3
                {
                  OFFSET -0.6113 -8.7231 -2.0637
                  CHANNELS 3 Zrotation Xrotation Yrotation
                  JOINT RightFinger31
                  {
                    OFFSET 0.1927 -3.8059 -0.2383
                    CHANNELS 3 Zrotation Xrotation Yrotation
                    JOINT RightFinger32
                    {
                      OFFSET 0.1091 -2.1688 -0.1362
                      CHANNELS 3 Zrotation Xrotation Yrotation
                      End Site
                      {
                        OFFSET 0.2358 -1.9176 -0.0906
                      }
                    }
                  }
                }
                JOINT RightFinger4
                {
                  OFFSET 0.6151 -8.0947 -3.564
                  CHANNELS 3 Zrotation Xrotation Yrotation
                  JOINT RightFinger41
                  {
                    OFFSET 0.4882 -2.341 -0.6462
                    CHANNELS 3 Zrotation Xrotation Yrotation
                    JOINT RightFinger42
                    {
                      OFFSET 0.3574 -1.7166 -0.4742
                      CHANNELS 3 Zrotation Xrotation Yrotation
                      End Site
                      {
                        OFFSET 0.4187 -1.5237 -0.3496
                      }
                    }
                  }
                }
                JOINT RightFinger0
                {
                  OFFSET 1.4199 -1.8761 1.4221
                  CHANNELS 3 Zrotation Xrotation Yrotation
                  JOINT RightFinger01
                  {
                    OFFSET 1.1472 -3.4929 2.6336
                    CHANNELS 3 Zrotation Xrotation Yrotation
                    JOINT RightFinger02
                    {
                      OFFSET 0.8229 -2.3 1.6571
                      CHANNELS 3 Zrotation Xrotation Yrotation
                      End Site
                      {
                        OFFSET 0.5822 -1.6914 1.1582
                      }
                    }
                  }
                }
              }
            }
          }
        }
      }
    }
  }
  JOINT RightHip
  {
    OFFSET -9.412 3.9771 -0.7758
    CHANNELS 3 Zrotation Xrotation Yrotation
    JOINT RightKnee
    {
      OFFSET -0.7531 -40.938 0
      CHANNELS 3 Zrotation Xrotation Yrotation
      JOINT RightAnkle
      {
        OFFSET 0 -40.1986 0
        CHANNELS 3 Zrotation Xrotation Yrotation
        JOINT RightToe
        {
          OFFSET 0 -4.4182 9.239
          CHANNELS 3 Zrotation Xrotation Yrotation
          End Site
          {
            OFFSET 0 0 6.1981
          }
        }
      }
    }
  }
  JOINT LeftHip
  {
    OFFSET 9.4119 3.9773 -0.7758
    CHANNELS 3 Zrotation Xrotation Yrotation
    JOINT LeftKnee
    {
      OFFSET 0.7532 -40.9383 0
      CHANNELS 3 Zrotation Xrotation Yrotation
      JOINT LeftAnkle
      {
        OFFSET 0 -40.1986 0
        CHANNELS 3 Zrotation Xrotation Yrotation
        JOINT LeftToe
        {
          OFFSET 0 -4.4182 9.239
          CHANNELS 3 Zrotation Xrotation Yrotation
          End Site
          {
            OFFSET 0 0 6.1981
          }
        }
      }
    }
  }
}
MOTION
Frames:	4
Frame Time:	0.0333333
5.72205e-005 65.662 3.42586 0 0 -0 0 0 -0 0 0 -0 0 0 -0 0 0 -0 0 0 -0 0 0 -12.5014 88.1196 14.2451 10.6914 -0.00160068 -0.00239207 0.000740045 -8.4365e-005 7.00714e-005 -9.52055e-007 9.93923e-017 -1.98785e-016 -1.59028e-015 9.93923e-017 -5.96354e-016 -1.59028e-015 -9.93923e-017 -5.96354e-016 -1.59028e-015 9.93923e-017 -1.98785e-016 -1.59028e-015 -0.0128176 0.00232552 8.52707e-005 9.93923e-017 5.96354e-016 -0 9.93923e-017 -1.98785e-016 -1.59028e-015 -0.0160551 0.00299681 0.000857156 -2.48481e-016 0 3.18055e-015 9.93923e-017 -1.98785e-016 -1.59028e-015 -0.0125865 0.0031206 0.00282719 0 1.98785e-016 -0 9.93923e-017 -1.98785e-016 -1.59028e-015 9.93923e-017 -5.96354e-016 -1.59028e-015 -9.93923e-017 -5.96354e-016 -1.59028e-015 -0.865644 0.16582 7.03859 -88.0329 10.2057 -10.5567 0.0015593 -0.00248883 -0.000788628 7.87605e-005 4.10553e-005 1.24965e-005 -3.97569e-016 -7.95139e-016 3.18055e-015 -1.98785e-016 -3.97569e-016 3.18055e-015 -1.98785e-016 0 3.18055e-015 -3.97569e-016 -7.95139e-016 3.18055e-015 0.0129473 0.00231697 -8.70038e-005 9.93923e-017 -7.95139e-016 1.59028e-015 -3.97569e-016 -7.95139e-016 3.18055e-015 0.0163314 0.00303369 -0.000872333 3.97569e-016 7.95139e-016 -3.18055e-015 -3.97569e-016 -7.95139e-016 3.18055e-015 0.0145763 0.00367772 -0.00326275 9.93923e-017 -3.97569e-016 -0 -3.97569e-016 -7.95139e-016 3.18055e-015 -1.98785e-016 -3.97569e-016 3.18055e-015 -1.98785e-016 0 3.18055e-015 3.42482 1.32465 -0.0626183 0.000117508 0.717283 0.000978199 -3.4257 -2.04197 -0.0604716 6.47761e-025 0 -0 -3.42483 1.34017 0.0627307 -0.000193936 0.682302 -0.0013703 3.42574 -2.02253 0.0595886 -8.45714e-024 0 -7.40531e-025 
39.8403 65.2182 49.421 180 75.0041 -180 -0.373438 6.27623 -0.886835 -0.654368 12.5574 -1.74811 -0.654369 12.5575 -1.74812 -2.79627e-008 0.281507 -8.914e-007 -1.94295e-007 0.106665 1.76414e-006 -59.8515 34.4114 -8.35737 57.8406 3.53791 -41.2449 9.81966 -31.8825 1.22715 42.8089 -10.953 12.3672 -4.8553e-031 -3.18055e-015 -8.74653e-015 -4.11728e-006 -2.55438e-006 -8.66565e-007 1.59028e-015 3.18055e-015 7.15625e-015 -4.8553e-031 -3.18055e-015 -8.74653e-015 -0.012747 0.00232099 8.67037e-005 1.59028e-015 0 3.97569e-015 -4.8553e-031 -3.18055e-015 -8.74653e-015 -0.0160475 0.00299735 0.00086894 -3.18055e-015 0 1.59028e-015 -4.8553e-031 -3.18055e-015 -8.74653e-015 -0.0126433 0.00313207 0.00283708 -1.59028e-015 1.27222e-014 -3.97569e-015 -4.8553e-031 -3.18055e-015 -8.74653e-015 -4.11728e-006 -2.55438e-006 -8.66565e-007 1.59028e-015 3.18055e-015 7.15625e-015 62.5709 34.0005 1.22715 -59.6495 0.099897 44.0287 -10.2605 -21.7596 -1.92235 -42.6942 -10.3329 -13.4006 -1.59028e-015 7.95139e-016 1.94809e-014 1.696e-006 -1.65713e-008 -1.22129e-007 7.95139e-016 -7.95139e-016 7.45443e-015 -1.59028e-015 7.95139e-016 1.94809e-014 0.012955 0.00232378 -8.50026e-005 6.89673e-034 -7.95139e-016 4.96962e-017 -1.59028e-015 7.95139e-016 1.94809e-014 0.0163565 0.00306504 -0.000878289 -3.01426e-006 -1.27057e-005 -2.99902e-006 -1.59028e-015 7.95139e-016 1.94809e-014 0.0146161 0.00369491 -0.00326234 -3.90227e-007 -1.08538e-005 -2.54764e-006 -1.59028e-015 7.95139e-016 1.94809e-014 1.696e-006 -1.65713e-008 -1.22129e-007 7.95139e-016 -7.95139e-016 7.45443e-015 -163.851 -77.6822 -162.67 4.74785 0.00230157 -0.37944 -5.67573 -2.5225 -7.1508 -4.25673e-007 1.03483e-008 -1.49664e-009 162.706 -76.935 163.369 -5.7003 1.42076 0.393885 6.06961 -3.33426 5.40893 3.85145e-016 9.65199e-013 1.59028e-015 
39.8403 65.2182 49.3153 180 75.0041 -180 -0.366692 5.85726 -0.88716 -0.64673 11.7194 -1.75024 -0.646731 11.7195 -1.75024 1.32989e-006 0.366268 5.37333e-006 5.51614e-007 0.139012 1.92804e-006 -59.8453 35.3766 -7.31107 57.4937 3.6964 -41.3016 10.1663 -33.6143 1.37807 42.114 -9.59189 11.9014 -6.90339e-006 -1.96295e-006 4.7087e-006 -1.39206e-006 -1.06969e-006 2.78206e-006 -5.87655e-006 -3.55628e-006 -2.53653e-006 -6.90339e-006 -1.96295e-006 4.7087e-006 -0.0128658 0.00234506 8.77451e-005 -8.98866e-006 -6.96778e-006 -5.74851e-006 -6.90339e-006 -1.96295e-006 4.7087e-006 -0.0161049 0.00301571 0.000860075 -2.73607e-006 -1.44647e-005 4.7553e-006 -6.90339e-006 -1.96295e-006 4.7087e-006 -0.0125738 0.00311474 0.00282046 5.875e-006 -3.98023e-006 2.53717e-006 -6.90339e-006 -1.96295e-006 4.7087e-006 -1.39206e-006 -1.06969e-006 2.78206e-006 -5.87655e-006 -3.55628e-006 -2.53653e-006 62.1461 35.097 0.105337 -59.2153 0.253203 44.1283 -10.8869 -23.8917 -2.17885 -41.772 -8.85393 -12.5361 1.59028e-015 2.38542e-015 2.43511e-015 7.95139e-016 2.38542e-015 -6.4605e-016 6.12109e-006 -5.71465e-007 -1.01234e-005 1.59028e-015 2.38542e-015 2.43511e-015 0.012896 0.00231341 -8.9528e-005 7.95139e-016 -7.95139e-016 7.45443e-015 1.59028e-015 2.38542e-015 2.43511e-015 0.0163985 0.00305653 -0.000881918 -3.18055e-015 0 -2.73329e-015 1.59028e-015 2.38542e-015 2.43511e-015 0.01453 0.00367013 -0.00324447 3.90045e-006 -5.34154e-007 -8.05005e-006 1.59028e-015 2.38542e-015 2.43511e-015 7.95139e-016 2.38542e-015 -6.4605e-016 6.12109e-006 -5.71465e-007 -1.01234e-005 -163.851 -77.6822 -162.67 4.74786 0.00232522 -0.379439 -5.67573 -2.5225 -7.1508 -1.62983e-006 1.39179e-007 -1.05541e-006 162.706 -76.935 163.369 -5.7003 1.42076 0.393888 6.06961 -3.33426 5.40892 -1.68967e-015 1.9294e-012 -1.59028e-015 
39.8403 65.2182 49.2096 180 75.0041 -180 -0.359943 5.43713 -0.887291 -0.63917 10.8791 -1.75201 -0.639172 10.8792 -1.75201 -2.48152e-006 0.451084 -5.34206e-006 1.90598e-007 0.171395 1.04553e-006 -59.8609 36.3438 -6.24986 57.1459 3.85901 -41.3572 10.5306 -35.3541 1.54613 41.4309 -8.22133 11.4527 8.61924e-007 2.3912e-006 3.00444e-006 -4.41391e-031 6.36111e-015 3.97569e-015 -7.86975e-007 -1.9823e-007 2.76579e-007 8.61924e-007 2.3912e-006 3.00444e-006 -0.0127724 0.00231949 9.38869e-005 -7.86907e-006 7.46715e-006 -5.63657e-006 8.61924e-007 2.3912e-006 3.00444e-006 -0.016067 0.00298691 0.000873136 -2.77683e-006 1.27401e-005 -2.83939e-006 8.61924e-007 2.3912e-006 3.00444e-006 -0.0124976 0.00310077 0.00281502 1.5739e-006 7.24531e-007 -5.53054e-007 8.61924e-007 2.3912e-006 3.00444e-006 -4.41391e-031 6.36111e-015 3.97569e-015 -7.86975e-007 -1.9823e-007 2.76579e-007 61.7413 36.2026 -1.02448 -58.7812 0.409327 44.2268 -11.5405 -26.0355 -2.46794 -40.872 -7.35494 -11.6952 -3.39121e-006 2.36471e-006 2.64922e-007 7.95139e-016 0 -1.46107e-014 -7.95139e-016 7.95139e-016 -5.11871e-015 -3.39121e-006 2.36471e-006 2.64922e-007 0.0129356 0.00230892 -7.93909e-005 5.37945e-032 7.95139e-016 -3.8763e-015 -3.39121e-006 2.36471e-006 2.64922e-007 0.0164139 0.00305141 -0.000872073 -4.13804e-032 1.59028e-015 1.49089e-015 -3.39121e-006 2.36471e-006 2.64922e-007 0.0144313 0.00363299 -0.00323068 -1.40693e-031 -1.35174e-014 -5.96354e-016 -3.39121e-006 2.36471e-006 2.64922e-007 7.95139e-016 0 -1.46107e-014 -7.95139e-016 7.95139e-016 -5.11871e-015 -163.862 -77.6757 -162.68 4.74771 0.017815 -0.380364 -5.67569 -2.53115 -7.151 -2.05551e-006 9.59076e-008 -1.05691e-006 162.701 -76.939 163.364 -5.70026 1.41284 0.393298 6.06964 -3.33043 5.40886 3.60297e-016 1.07238e-007 -0 
